<svg width="100" height="34" viewBox="0 0 100 34" fill="none" xmlns="http://www.w3.org/2000/svg">
<path d="M97.0306 20.6634L99.8132 22.5184C98.9101 23.8486 96.7501 26.1308 93.0157 26.1308C88.3783 26.1308 84.9248 22.5429 84.9248 17.9786C84.9248 13.1217 88.4149 9.82666 92.6252 9.82666C96.8598 9.82666 98.9344 13.1948 99.6057 15.0131L99.9719 15.9407L89.0618 20.456C89.8916 22.0914 91.1854 22.9212 93.0157 22.9212C94.8463 22.9212 96.1154 22.0181 97.0306 20.6634ZM88.4761 17.7226L95.7616 14.6959C95.3588 13.6831 94.163 12.9632 92.7349 12.9632C90.9168 12.9632 88.3907 14.5741 88.4761 17.7226Z" fill="#FF302F"/>
<path d="M79.665 1.51607H83.1795V25.3864H79.665V1.51587V1.51607Z" fill="#20B15A"/>
<path d="M74.1247 10.4611H77.5173V24.9591C77.5173 30.9753 73.9661 33.4527 69.7679 33.4527C65.8141 33.4527 63.4345 30.7924 62.5435 28.6324L65.6554 27.3387C66.2167 28.6688 67.5713 30.2433 69.7679 30.2433C72.4649 30.2433 74.1247 28.5713 74.1247 25.4472V24.2758H74.0027C73.1972 25.2519 71.6595 26.1305 69.707 26.1305C65.6309 26.1305 61.8965 22.5793 61.8965 18.0031C61.8965 13.4022 65.6309 9.81445 69.707 9.81445C71.6474 9.81445 73.1972 10.6809 74.0027 11.6328H74.1247V10.4613V10.4611ZM74.3686 18.0031C74.3686 15.1229 72.4527 13.0239 70.012 13.0239C67.5468 13.0239 65.4722 15.1229 65.4722 18.0031C65.4722 20.8463 67.5468 22.9088 70.012 22.9088C72.4529 22.9211 74.3688 20.8463 74.3688 18.0031H74.3686Z" fill="#3686F7"/>
<path d="M42.6028 17.9419C42.6028 22.6404 38.9418 26.0939 34.4508 26.0939C29.96 26.0939 26.2988 22.6283 26.2988 17.9419C26.2988 13.2192 29.96 9.77783 34.4508 9.77783C38.9418 9.77783 42.6028 13.2192 42.6028 17.9419ZM39.0394 17.9419C39.0394 15.0132 36.9158 12.9994 34.4508 12.9994C31.9858 12.9994 29.8622 15.0132 29.8622 17.9419C29.8622 20.8464 31.9858 22.8845 34.4508 22.8845C36.916 22.8845 39.0394 20.8464 39.0394 17.9419Z" fill="#FF302F"/>
<path d="M60.4084 17.9786C60.4084 22.6771 56.7473 26.1306 52.2565 26.1306C47.7655 26.1306 44.1045 22.6769 44.1045 17.9786C44.1045 13.2559 47.7655 9.82666 52.2565 9.82666C56.7473 9.82666 60.4084 13.2437 60.4084 17.9786ZM56.8327 17.9786C56.8327 15.0499 54.7093 13.0361 52.2441 13.0361C49.7791 13.0361 47.6556 15.0499 47.6556 17.9786C47.6556 20.883 49.7791 22.9212 52.2441 22.9212C54.7215 22.9212 56.8327 20.8709 56.8327 17.9786Z" fill="#FFBA40"/>
<path d="M12.8992 22.5548C7.78584 22.5548 3.78322 18.43 3.78322 13.3166C3.78322 8.2034 7.78584 4.07854 12.8992 4.07854C15.6573 4.07854 17.6707 5.16461 19.1596 6.55589L21.6126 4.10303C19.5381 2.11386 16.7678 0.600342 12.8992 0.600342C5.89442 0.600538 0 6.31199 0 13.3166C0 20.3216 5.89442 26.0328 12.8992 26.0328C16.6824 26.0328 19.5381 24.7881 21.7713 22.4694C24.0655 20.175 24.7733 16.9533 24.7733 14.3417C24.7733 13.524 24.6757 12.6821 24.5658 12.0597H12.8992V15.4523H21.2099C20.9658 17.5758 20.2946 19.028 19.3061 20.0164C18.1101 21.2247 16.2187 22.5548 12.8992 22.5548Z" fill="#3686F7"/>
</svg>
