<svg width="178" height="33" viewBox="0 0 178 33" fill="none" xmlns="http://www.w3.org/2000/svg">
<path d="M3.67734 25.5165C3.02387 25.5179 2.38174 25.3458 1.81655 25.0178C1.25135 24.6898 0.783356 24.2177 0.460362 23.6496C0.142256 23.0856 -0.0164159 22.4456 0.00134281 21.7983C0.0191015 21.151 0.212622 20.5207 0.561174 19.975L7.18636 9.5716C7.52541 9.01245 8.0068 8.5533 8.58136 8.24107C9.15592 7.92883 9.80307 7.7747 10.4567 7.7944C11.1098 7.81004 11.7471 7.99894 12.3033 8.34176C12.8595 8.68459 13.3146 9.16903 13.622 9.74551C13.9249 10.3175 14.0664 10.9612 14.0313 11.6075C13.9962 12.2538 13.7859 12.8784 13.4228 13.4142L6.80182 23.8187C6.46601 24.3419 6.00355 24.7718 5.4573 25.0687C4.91105 25.3656 4.29869 25.5197 3.67699 25.5169L3.67734 25.5165Z" fill="#F62B54"/>
<path d="M15.0406 25.5164C13.7044 25.5164 12.475 24.8021 11.8292 23.6537C11.5119 23.0912 11.3537 22.4529 11.3715 21.8073C11.3893 21.1618 11.5825 20.5332 11.9304 19.9891L18.5427 9.60925C18.8768 9.0422 19.3564 8.57485 19.932 8.25565C20.5075 7.93645 21.1579 7.77704 21.8158 7.79394C23.1635 7.82374 24.3846 8.57757 25.0023 9.75649C25.3037 10.3339 25.4408 10.983 25.3986 11.633C25.3565 12.2829 25.1367 12.9089 24.7633 13.4425L18.1527 23.822C17.8179 24.343 17.3573 24.7713 16.8135 25.0673C16.2696 25.3634 15.6599 25.5177 15.0406 25.5161V25.5164Z" fill="#FFCC00"/>
<path d="M26.1507 25.6033C28.0346 25.6033 29.5617 24.1083 29.5617 22.2641C29.5617 20.4198 28.0346 18.9248 26.1507 18.9248C24.2669 18.9248 22.7397 20.4198 22.7397 22.2641C22.7397 24.1083 24.2669 25.6033 26.1507 25.6033Z" fill="#00CA72"/>
<path d="M174.326 19.1189C175.356 19.1189 175.972 19.8517 175.972 21.0517V25.1642H177.371V20.9575C177.371 18.917 176.41 17.7336 174.602 17.7336C173.895 17.7336 172.771 17.9272 172.102 19.2284C171.947 18.8446 171.69 18.51 171.36 18.2604C171.029 18.0107 170.637 17.8552 170.226 17.8105C169.966 17.7631 169.702 17.7476 169.439 17.7644C168.864 17.8105 167.839 18.1687 167.456 18.9797V17.8891H166.055V25.1642H167.456V21.2384C167.456 19.711 168.456 19.1189 169.456 19.1189C170.394 19.1189 171.01 19.8361 171.01 21.0361V25.1642H172.402V21.2384C172.402 20.0224 173.132 19.1047 174.325 19.1189H174.326ZM160.914 23.9486C161.231 23.9551 161.547 23.8959 161.84 23.7746C162.134 23.6533 162.399 23.4726 162.619 23.2439C162.841 23.0135 163.015 22.7406 163.129 22.4415C163.243 22.1424 163.295 21.8233 163.283 21.5034C163.283 20.038 162.205 19.1189 160.914 19.1189C159.621 19.1189 158.544 20.038 158.544 21.5034C158.531 21.8224 158.583 22.1407 158.697 22.4391C158.81 22.7374 158.983 23.0098 159.204 23.2398C159.423 23.4683 159.687 23.6492 159.98 23.7712C160.272 23.8931 160.586 23.9535 160.903 23.9486H160.914ZM160.914 25.3128C158.867 25.3128 157.159 23.8013 157.159 21.4951C157.159 19.1889 158.867 17.7249 160.914 17.7249C162.96 17.7249 164.683 19.1889 164.683 21.4951C164.683 23.8013 162.95 25.3198 160.904 25.3198L160.914 25.3128ZM149.952 21.4951L149.938 21.5034C149.938 19.1972 151.691 17.7336 153.751 17.7249C154.269 17.7149 154.782 17.8137 155.26 18.0148C155.737 18.216 156.166 18.5151 156.52 18.8927L155.459 19.7969C155.234 19.5756 154.967 19.4011 154.674 19.2835C154.381 19.1658 154.067 19.1075 153.751 19.1117C152.46 19.1117 151.337 20.0311 151.337 21.4951C151.337 22.4845 151.925 23.3763 152.828 23.7549C153.269 23.9398 153.756 23.988 154.225 23.8935C154.694 23.799 155.124 23.5659 155.459 23.2245L156.536 24.1284C156.181 24.51 155.749 24.8126 155.269 25.0167C154.79 25.2208 154.272 25.3218 153.751 25.3132C151.706 25.3132 149.952 23.8013 149.952 21.4951ZM145.47 23.7677C145.467 23.5109 145.566 23.2634 145.745 23.0797C145.925 22.8959 146.17 22.791 146.427 22.788C146.684 22.791 146.929 22.8959 147.108 23.0797C147.288 23.2634 147.387 23.5109 147.384 23.7677C147.372 24.014 147.265 24.2462 147.088 24.4169C146.91 24.5877 146.673 24.6842 146.427 24.6868C146.18 24.6842 145.944 24.5877 145.766 24.4169C145.588 24.2462 145.482 24.014 145.47 23.7677ZM149.299 8.64073H144.314L140.821 17.648L137.346 8.64073H132.361L138.421 22.8736L134.652 32.2834H139.6L149.299 8.64073ZM118.986 16.5571C118.986 18.8311 120.973 20.3273 122.926 20.3273C124.845 20.3273 126.73 18.9346 126.73 16.5557C126.73 14.1767 124.845 12.783 122.926 12.783C120.973 12.783 118.986 14.2807 118.986 16.5557V16.5571ZM126.73 24.5043V22.7035C125.719 24.2337 123.361 24.8119 122.151 24.8119C118.145 24.8119 114.138 21.6538 114.138 16.5557C114.138 11.4593 118.144 8.30088 122.151 8.30088C123.16 8.30088 125.518 8.63796 126.73 10.4065V8.64662H131.376V24.5074L126.73 24.506V24.5046L126.73 24.5043ZM112.816 24.5043H108.17V22.5337C107.394 23.9936 105.511 24.8444 103.557 24.8444C99.5164 24.8444 95.9468 21.6171 95.9468 16.6201C95.9468 11.5293 99.5164 8.29811 103.557 8.29811C105.508 8.29811 107.396 9.11223 108.17 10.5735V0H112.816V24.5046V24.5043ZM108.068 16.5207C108.068 14.1428 106.352 12.7491 104.433 12.7491C102.446 12.7491 100.795 14.2439 100.795 16.5207C100.795 18.8702 102.446 20.3581 104.432 20.3581C106.387 20.3609 108.068 18.7975 108.068 16.5207Z" fill="#333333"/>
<path d="M84.4602 16.1106C84.4602 13.6994 85.7067 12.8836 87.3557 12.8836C88.9375 12.8836 90.0831 13.9364 90.0831 16.0417V24.5016H94.7628V15.0242C94.7628 10.5074 92.5394 8.29786 89.0037 8.29786C87.1523 8.29786 85.301 9.35102 84.4585 10.9481V8.64048H79.7816V24.5016H84.4602V16.1106ZM70.2793 24.7739C65.8353 24.7739 62.1284 21.5132 62.1284 16.5191C62.1284 11.5221 65.8311 8.2937 70.2793 8.2937C74.7275 8.2937 78.462 11.5221 78.462 16.5191C78.462 21.516 74.723 24.7753 70.2793 24.7753V24.7739ZM70.2793 20.1559C72.2304 20.1559 73.8486 18.7269 73.8486 16.5204C73.8486 14.3798 72.2318 12.9186 70.2793 12.9186C69.8092 12.9113 69.3425 12.9997 68.9076 13.1786C68.4728 13.3575 68.0789 13.6229 67.75 13.9589C67.4191 14.2967 67.1596 14.6974 66.9867 15.1375C66.8138 15.5775 66.7311 16.0478 66.7436 16.5204C66.745 18.7297 68.3604 20.1559 70.2793 20.1559Z" fill="#333333"/>
<path d="M53.7379 12.8851C55.1177 12.8851 56.3306 13.9729 56.3306 16.0431V24.5044H60.9763V15.4958C60.9763 10.7067 58.6479 8.29517 54.9154 8.29517C53.8068 8.29517 51.7178 8.63225 50.2022 11.1137C49.3264 9.27904 47.6434 8.32738 45.1561 8.32738C44.2925 8.323 43.4459 8.56744 42.7176 9.03146C41.9893 9.49549 41.41 10.1595 41.0491 10.944V8.64195H36.3667V24.503H41.0449V16.1107C41.0449 13.6995 42.3586 12.8837 43.7721 12.8837C45.1197 12.8837 46.3298 13.9365 46.3648 15.9409V24.503H51.0444V16.1107C51.0444 13.8045 52.2569 12.8864 53.7379 12.8864V12.8851Z" fill="#333333"/>
</svg>
